<?xml version="1.0" standalone="no"?>
<!DOCTYPE svg PUBLIC "-//W3C//DTD SVG 20010904//EN"
 "http://www.w3.org/TR/2001/REC-SVG-20010904/DTD/svg10.dtd">
<svg version="1.0" xmlns="http://www.w3.org/2000/svg"
 width="516.000000pt" height="598.000000pt" viewBox="0 0 516.000000 598.000000"
 preserveAspectRatio="xMidYMid meet">
<metadata>
Created by potrace 1.16, written by Peter Selinger 2001-2019
</metadata>
<g transform="translate(0.000000,598.000000) scale(0.100000,-0.100000)"
fill="#000000" stroke="none">
<path d="M2705 5961 c-301 -87 -551 -368 -685 -770 -64 -191 -75 -262 -75
-466 0 -155 3 -192 23 -270 28 -109 94 -250 154 -327 157 -205 449 -221 715
-40 58 40 185 163 243 237 121 153 237 417 279 637 53 277 32 505 -64 703 -78
160 -170 254 -289 295 -76 26 -214 26 -301 1z"/>
<path d="M863 5045 c-123 -33 -235 -121 -346 -269 -59 -80 -151 -258 -182
-351 -56 -170 -81 -448 -56 -613 34 -217 122 -399 261 -542 176 -181 481 -153
695 65 193 196 314 483 334 792 17 257 -29 471 -146 674 -71 125 -179 211
-308 245 -64 18 -185 17 -252 -1z"/>
<path d="M4370 5048 c-92 -9 -209 -46 -312 -98 -191 -95 -352 -237 -511 -448
-127 -170 -214 -360 -247 -542 -17 -92 -14 -263 4 -344 30 -126 111 -258 199
-323 72 -53 131 -67 287 -66 127 0 156 3 235 27 204 61 380 172 548 345 178
185 314 416 379 646 28 100 36 316 14 409 -33 142 -117 267 -224 334 -80 51
-227 75 -372 60z"/>
<path d="M1740 3134 c-169 -22 -333 -72 -518 -160 -400 -190 -724 -425 -1003
-728 -171 -185 -219 -292 -219 -486 0 -224 92 -377 287 -477 137 -71 249 -99
599 -153 245 -37 366 -67 504 -126 208 -88 346 -208 540 -469 57 -77 135 -182
172 -232 111 -149 234 -243 371 -285 57 -17 87 -20 177 -16 101 4 115 7 183
41 169 84 288 280 346 572 38 193 52 378 46 608 -17 641 -76 971 -230 1293
-154 320 -411 515 -790 599 -69 15 -389 28 -465 19z"/>
<path d="M4460 3035 c-271 -54 -544 -229 -738 -473 -136 -170 -195 -287 -229
-450 -22 -108 -14 -275 17 -357 45 -118 120 -201 224 -247 331 -146 771 -12
1104 336 214 224 322 458 322 695 0 176 -46 299 -147 391 -111 102 -347 146
-553 105z"/>
</g>
</svg>
